# xmcd
#
# Track frame offsets: 
#        150
#        19880
#        51122
#        75380
#        105572
#        117329
#        143016
#        171909
#        200103
#        227398
#        258659
#        281360
#
# Disc length: 4051 seconds
#
# Revision: 2
# Processed by: cddbd v1.5.2PL0 Copyright (c) Steve Scherf et al.
# Submitted via: ExactAudioCopy v1.0b3
#
DISCID=9f0fd10c
DTITLE=Bryan Lee - My Lady Don't Love My Lady
DYEAR=2009
DGENRE=Blues
TTITLE0=Imitation Of Love
TTITLE1=I Don't Know
TTITLE2=Three Can Play The Game
TTITLE3=Early In The Morning
TTITLE4=Let Me Up I've Had Enough
TTITLE5=Heartbreaker
TTITLE6=Too Many Wolves
TTITLE7=My Lady Don't Love My Lady
TTITLE8=When I Been Drinking
TTITLE9=Me And My Music
TTITLE10=Reconsider Me
TTITLE11=Just To Prove My Love To You
EXTD=
EXTT0=
EXTT1=
EXTT2=
EXTT3=
EXTT4=
EXTT5=
EXTT6=
EXTT7=
EXTT8=
EXTT9=
EXTT10=
EXTT11=
PLAYORDER=
